<svg width="25" height="23" viewBox="0 0 25 23" fill="none" xmlns="http://www.w3.org/2000/svg">
<path fill-rule="evenodd" clip-rule="evenodd" d="M20 21C20.542 21 21 20.542 21 20V12.171L23 10.171V20C23 21.65 21.65 23 20 23H3C1.35 23 0 21.65 0 20V3C0 1.35 1.35 0 3 0H20C20.5257 0.00329969 21.041 0.146542 21.493 0.415L19.908 2H3C2.458 2 2 2.458 2 3V20C2 20.542 2.458 21 3 21H20ZM4.25684 11.3149L6.95925 8.48591L11.6916 13.4389L22.2988 2.33691L25.0002 5.16591L11.6916 19.0979L4.25684 11.3149Z" fill="#4D4D4D"/>
</svg>
